<svg xmlns="http://www.w3.org/2000/svg" width="260" height="260"><defs><clipPath id="a"><path d="M0 195.911h208.792V0H0v195.911z"/></clipPath></defs><g clip-path="url(#a)" transform="matrix(2.27549 0 0 -2.27549 -107.348 352.707)" fill="#333"><path d="M51.418 72.648l8.935-15.445.002-.001a10.681 10.681 0 0 1 9.54-5.876h59.308l-12.305 21.322h-65.48zM157.195 72.538c0 2.135-.63 4.123-1.708 5.792l-34.75 60.408a10.68 10.68 0 0 1-9.44 5.68H92.932l53.676-93 8.46 14.654c1.67 2.807 2.127 4.05 2.127 6.466M108.146 87.798l-23.99 41.553-23.992-41.553h47.982z"/></g></svg>