<svg xmlns="http://www.w3.org/2000/svg" viewBox="0 0 50 50"><path d="M44.99 1.588H5.01c-1.981 0-3.422 1.44-3.422 3.422v39.98c0 1.801 1.621 3.422 3.422 3.422h39.98c1.981 0 3.422-1.44 3.422-3.422V5.01c0-1.981-1.621-3.422-3.422-3.422zm-28.995 39.62H8.792v-21.61h7.203v21.61zm-3.601-24.492c-2.342 0-4.323-1.981-4.323-4.322 0-2.342 1.981-4.323 4.323-4.323 2.34 0 4.322 1.981 4.322 4.323 0 2.34-1.981 4.322-4.322 4.322zm28.814 24.492h-7.203V30.403c0-2.882-.72-5.763-3.602-5.763-2.882 0-3.602 2.881-3.602 5.763v10.805h-7.204v-21.61h7.204v2.52h.36c.9-1.8 3.242-3.241 5.943-3.241 6.663 0 8.104 4.322 8.104 9.725v12.606z" fill="#333"/></svg>