<svg xmlns="http://www.w3.org/2000/svg" width="400" height="400"><path d="M200.227 5.727A193.864 193.864 0 0 0 6.363 199.592a193.864 193.864 0 0 0 193.864 193.863 193.864 193.864 0 0 0 193.865-193.863A193.864 193.864 0 0 0 200.227 5.727zm-57.778 121.082c3.04.006 6.078.066 9.098.295 3.567.27 7.152 1.163 10.658 1.855 6.22 1.228 12.642 4.546 17.77 8.135 3.632 2.542 6.078 6.505 8.4 10.19 2.705 4.291 4.297 9.718 5.092 14.671.978 6.115.208 13.41-1.35 19.375-.54 2.063-1.16 4.114-1.928 6.102-2.623 6.797-6.714 10.586-14.34 15.955-1.378.969-3.697 1.444-4.22 3.25-.468 1.616 1.197 3.785 3.213 6.427 1.185 1.545 26.546 34.381 28.062 36.127 1.553 1.785 3.168 3.946 2.471 6.452-.928 3.328-6.357 2.812-11.248 2.812h-84.354c-4.778 0-11.502.36-12.853-1.207-1.382-1.602-.805-10.76-.805-16.066 0-18.487-.58-100.002 0-108.053.11-1.546-.161-3.742 1.192-4.803.474-.37 1.026-.64 1.617-.836 1.63-.536 3.577-.496 5.135-.39 1.747.12 3.503-.112 5.255-.086 8.006.119 16.022-.19 24.028-.17 3.026.007 6.067-.041 9.107-.035zm119.205.187c6.81-.03 13.279.148 18.83 1.317 3.348.705 6.14 1.254 8.84 2.41 3.755 1.609 7.604 3.414 10.688 6.144 10.296 9.124 11.867 27.752 7.388 40.049-.406 1.113-1.348 3.058-2.41 4.818-1.388 2.302-3.783 4.074-1.207 6.028 5.172 3.928 10.119 7.613 13.305 13.441 7.488 13.697 5.313 32.83-5.488 44.23-3.881 4.1-8.968 7.08-14.24 8.946-19.52 6.89-39.937 4.646-60.182 4.646-5.594 0-14.057.041-16.14-1.775-2.392-2.086-1.606-10.01-1.606-15.266V141.165c0-4.255-1.048-12.554 3.214-13.66.25-.064.556.076.8.005 2.622-.773 9.345-.403 13.255-.403h12.45c4.207 0 8.417-.093 12.503-.11z" fill="#333"/></svg>